<?xml version="1.0" standalone="no"?>
<!DOCTYPE svg PUBLIC "-//W3C//DTD SVG 20010904//EN"
 "http://www.w3.org/TR/2001/REC-SVG-20010904/DTD/svg10.dtd">
<svg version="1.0" xmlns="http://www.w3.org/2000/svg"
 width="512.000000pt" height="512.000000pt" viewBox="0 0 512.000000 512.000000"
 preserveAspectRatio="xMidYMid meet">

<g transform="translate(0.000000,512.000000) scale(0.100000,-0.100000)"
fill="#000000" stroke="none">
<path d="M1 3948 c1 -653 5 -1144 10 -1108 4 36 10 79 13 95 2 17 8 53 11 80
4 28 20 100 36 160 16 61 31 117 33 126 16 61 30 98 37 93 5 -3 6 1 4 8 -10
26 164 418 185 418 4 0 7 6 7 13 0 24 134 218 145 211 6 -4 8 -3 5 3 -11 18
119 187 136 176 6 -3 7 -1 3 5 -8 13 52 84 65 76 5 -3 8 -2 7 3 -2 5 29 42 67
82 49 50 75 71 88 67 14 -3 16 -2 7 9 -9 10 -7 16 7 23 10 6 22 10 26 10 5 0
12 4 15 8 4 4 0 3 -8 -1 -13 -8 -13 -6 -1 8 7 9 17 14 22 11 5 -3 8 -1 7 4 -2
5 22 28 52 50 30 23 60 46 67 52 43 37 127 88 137 83 6 -3 8 -3 4 2 -10 11 29
38 42 30 6 -3 13 1 16 9 3 9 10 14 14 11 4 -3 11 2 14 11 5 13 9 14 21 4 13
-11 14 -10 10 1 -4 10 23 28 87 61 83 42 144 70 158 73 3 0 15 6 28 13 12 7
28 10 34 6 6 -4 8 -3 5 3 -7 11 110 56 124 47 5 -3 9 -1 9 3 0 8 89 38 141 47
14 2 47 11 74 20 26 9 61 15 77 12 15 -2 26 0 23 5 -4 5 4 9 17 9 56 2 86 5
82 11 -2 4 6 7 19 8 12 0 56 5 97 9 47 6 -361 10 -1102 11 l-1178 1 1 -1172z"/>
<path d="M2845 5109 c33 -5 73 -9 88 -10 15 -1 34 -11 41 -21 11 -16 14 -16
19 -4 5 12 13 13 37 6 36 -10 34 -10 61 -10 11 0 18 -3 16 -7 -3 -5 11 -8 31
-8 21 -1 46 -5 57 -9 11 -5 29 -11 40 -13 11 -2 27 -6 35 -10 8 -3 20 -7 25
-8 6 -1 12 -3 15 -4 3 -1 16 -5 30 -7 14 -3 27 -9 28 -14 2 -6 7 -8 12 -5 11
7 70 -15 70 -27 0 -5 4 -7 9 -3 5 3 12 1 16 -5 4 -6 10 -8 15 -5 12 8 52 -14
46 -24 -3 -4 1 -8 9 -8 8 0 11 5 8 11 -4 6 2 3 13 -6 10 -9 33 -20 49 -24 32
-7 196 -90 205 -103 3 -5 15 -12 28 -16 14 -4 21 -12 18 -20 -3 -9 2 -11 15
-8 11 3 19 0 19 -6 0 -7 4 -10 9 -7 5 4 30 -10 55 -29 26 -19 48 -35 51 -35
10 0 44 -34 40 -40 -2 -3 5 -7 16 -7 11 -1 35 -14 53 -30 18 -15 50 -41 70
-56 20 -16 33 -33 30 -39 -5 -7 -2 -8 5 -4 14 9 255 -227 244 -238 -3 -3 -1
-6 5 -6 17 0 113 -120 106 -132 -4 -6 -2 -8 4 -4 14 8 55 -50 46 -65 -4 -8 -3
-9 4 -5 14 9 46 -39 36 -55 -4 -7 -3 -9 4 -5 10 6 99 -119 105 -147 1 -7 5
-14 9 -17 13 -10 126 -246 163 -340 21 -52 38 -109 39 -127 0 -17 4 -29 8 -27
4 3 10 -8 14 -23 3 -15 10 -39 15 -53 14 -39 57 -239 64 -300 4 -30 11 -80 15
-110 4 -30 8 470 9 1113 l1 1167 -1167 -1 c-691 -1 -1143 -5 -1108 -10z"/>
<path d="M4243 4455 c0 -8 4 -12 9 -9 5 3 6 10 3 15 -9 13 -12 11 -12 -6z"/>
<path d="M755 4350 c-3 -6 1 -7 9 -4 18 7 21 14 7 14 -6 0 -13 -4 -16 -10z"/>
<path d="M4340 4356 c0 -2 7 -7 16 -10 8 -3 12 -2 9 4 -6 10 -25 14 -25 6z"/>
<path d="M4685 3951 c-3 -5 -2 -12 3 -15 5 -3 9 1 9 9 0 17 -3 19 -12 6z"/>
<path d="M3483 2665 c0 -8 4 -12 9 -9 5 3 6 10 3 15 -9 13 -12 11 -12 -6z"/>
<path d="M20 2366 c0 -2 8 -10 18 -17 15 -13 16 -12 3 4 -13 16 -21 21 -21 13z"/>
<path d="M0 2356 c0 -2 8 -10 18 -17 15 -13 16 -12 3 4 -13 16 -21 21 -21 13z"/>
<path d="M5107 2273 c-9 -97 -14 -123 -42 -260 -30 -140 -117 -412 -137 -424
-7 -5 -10 -9 -6 -9 11 0 -30 -90 -50 -108 -10 -10 -12 -13 -5 -8 7 5 13 5 13
2 0 -16 -34 -72 -54 -89 -11 -10 -15 -16 -8 -12 6 3 12 4 12 0 0 -7 -32 -58
-42 -65 -4 -3 -12 -18 -17 -33 -7 -17 -15 -25 -23 -21 -6 4 -8 3 -4 -4 7 -12
-13 -62 -26 -62 -4 0 -8 -5 -8 -11 0 -19 -63 -99 -73 -92 -6 3 -7 1 -3 -6 7
-11 -53 -95 -129 -180 -39 -45 -240 -246 -287 -288 -89 -79 -342 -253 -367
-253 -5 0 -16 -6 -23 -14 -24 -23 -124 -76 -131 -69 -4 3 -7 1 -7 -5 0 -7 -7
-12 -15 -12 -8 0 -29 -9 -47 -19 -17 -11 -35 -18 -40 -15 -4 3 -8 1 -8 -5 0
-6 -19 -16 -42 -22 -24 -7 -47 -16 -52 -21 -15 -12 -28 -10 -21 4 4 7 0 5 -8
-5 -13 -15 -219 -89 -236 -84 -3 0 -23 -5 -44 -12 -21 -7 -47 -11 -58 -8 -10
3 -17 2 -14 -3 6 -9 -87 -28 -131 -26 -18 1 -30 -2 -28 -6 3 -5 -4 -8 -16 -8
-12 0 -19 4 -16 8 3 5 -1 9 -9 9 -8 0 -12 -4 -9 -8 5 -9 -21 -17 -76 -22 -19
-2 490 -5 1133 -5 l1167 -2 0 1170 c0 644 -2 1170 -4 1170 -2 0 -6 -30 -9 -67z"/>
<path d="M1 1168 l-1 -1168 1168 2 c642 0 1151 3 1132 5 -55 5 -81 13 -76 22
3 4 -1 8 -9 8 -8 0 -12 -4 -9 -9 3 -5 -7 -6 -23 -3 -15 3 -41 7 -58 9 -60 8
-200 39 -211 47 -6 5 -13 6 -16 4 -3 -3 -18 -1 -34 5 -16 6 -30 11 -32 11 -1
-1 -18 5 -37 13 -20 9 -39 15 -43 16 -30 3 -82 23 -82 31 0 6 -4 7 -10 4 -5
-3 -22 2 -37 12 -15 10 -28 17 -30 16 -5 -4 -34 7 -93 35 -30 14 -61 27 -68
28 -7 1 -25 11 -40 20 -15 10 -29 19 -32 19 -10 0 -184 104 -240 143 -30 21
-54 43 -53 50 2 6 -3 9 -11 6 -8 -3 -28 8 -45 25 -18 17 -35 31 -38 31 -10 0
-118 95 -200 175 -59 57 -70 72 -60 85 9 12 9 13 -3 3 -20 -18 -55 13 -39 34
9 11 8 12 -5 7 -18 -7 -48 24 -39 40 4 5 1 6 -4 3 -16 -10 -136 140 -128 160
2 8 1 12 -4 8 -13 -8 -54 52 -45 66 4 8 3 9 -4 5 -16 -9 -63 66 -48 76 7 5 4
8 -7 8 -10 0 -24 15 -35 38 -9 20 -21 40 -27 44 -7 5 -7 8 0 8 6 0 6 3 -1 8
-16 11 -67 102 -57 102 4 0 3 4 -2 8 -6 4 -30 49 -53 101 -33 73 -40 96 -30
102 10 7 10 9 -3 9 -10 0 -24 27 -43 81 -15 44 -29 86 -30 92 -2 7 -6 24 -11
40 -5 18 -3 33 6 45 12 15 12 16 -2 4 -15 -11 -18 -5 -32 50 -8 35 -18 83 -22
108 -4 25 -9 54 -12 65 -4 20 -9 57 -23 155 -4 30 -8 -470 -9 -1112z"/>
<path d="M196 1622 c-3 -5 1 -9 9 -9 8 0 12 4 9 9 -3 4 -7 8 -9 8 -2 0 -6 -4
-9 -8z"/>
<path d="M4839 1473 c-13 -16 -12 -17 4 -4 16 13 21 21 13 21 -2 0 -10 -8 -17
-17z"/>
<path d="M757 769 c7 -7 15 -10 18 -7 3 3 -2 9 -12 12 -14 6 -15 5 -6 -5z"/>
<path d="M4265 690 c-16 -7 -17 -9 -3 -9 9 -1 20 4 23 9 7 11 7 11 -20 0z"/>
<path d="M3707 299 c7 -7 15 -10 18 -7 3 3 -2 9 -12 12 -14 6 -15 5 -6 -5z"/>
<path d="M1875 111 c-3 -5 -2 -12 3 -15 5 -3 9 1 9 9 0 17 -3 19 -12 6z"/>
</g>
</svg>
